<?xml version="1.0" encoding="UTF-8"?>
<svg width="199px" height="46px" viewBox="0 0 199 46" version="1.1" xmlns="http://www.w3.org/2000/svg" xmlns:xlink="http://www.w3.org/1999/xlink">
    <!-- Generator: Sketch 56.3 (81716) - https://sketch.com -->
    <title>FoodStyles horizontal</title>
    <desc>Created with Sketch.</desc>
    <g id="Page-1" stroke="none" stroke-width="1" fill="none" fill-rule="evenodd">
        <g id="1.-Start" transform="translate(-110.000000, -30.000000)" fill="#FFFFFF">
            <g id="FoodStyles-horizontal" transform="translate(110.000000, 30.000000)">
                <path d="M35.9260835,0.00656065574 L19.4420756,0.00656065574 L19.4420756,-3.55271368e-15 L2.06346541,-3.55271368e-15 C0.924003383,-3.55271368e-15 -2.84217094e-14,0.931462295 -2.84217094e-14,2.0799541 L-2.84217094e-14,43.2577967 C-2.84217094e-14,44.4063639 0.924003383,45.3370721 2.06346541,45.3370721 L17.3786102,45.3370721 C18.5179974,45.3370721 19.4420756,44.4063639 19.4420756,43.2577967 L19.4420756,38.1158262 C19.4420756,36.9673344 20.3654056,36.0358721 21.505541,36.0358721 L30.9275177,36.0358721 C32.0669797,36.0358721 32.9903098,35.1051639 32.9903098,33.9566721 L32.9903098,23.2225344 C32.9903098,22.0740426 32.0669797,21.1425803 30.9275177,21.1425803 L21.505541,21.1425803 C21.3935474,21.1425803 21.2843966,21.1266689 21.1774154,21.1093246 C20.3129624,22.5212984 18.7750515,23.4758361 17.0167444,23.4758361 L9.66107594,23.4758361 L9.66107594,21.1469541 L15.1141248,21.1469541 C15.5219252,21.1469541 15.8558113,20.8111541 15.8558113,20.399341 C15.8558113,19.988282 15.5219252,19.652482 15.1141248,19.652482 L9.66107594,19.652482 L9.66107594,17.4472721 L15.1141248,17.4472721 C15.5219252,17.4472721 15.8558113,17.1107934 15.8558113,16.6997344 C15.8558113,16.2886754 15.5219252,15.9521213 15.1141248,15.9521213 L9.66107594,15.9521213 L9.66107594,13.5963934 L17.0174925,13.5963934 L17.0174925,13.5971475 C18.8619083,13.5971475 20.4658782,14.645118 21.3016034,16.1728459 C21.369832,16.1663607 21.4351429,16.1525607 21.505541,16.1525607 L35.9260835,16.1525607 C37.0662188,16.1525607 37.9895489,15.2211738 37.9895489,14.0726066 L37.9895489,2.08651475 C37.9895489,0.937947541 37.0662188,0.00656065574 35.9260835,0.00656065574" id="Fill-1"></path>
                <polygon id="Fill-5" points="60.5055759 17.1682557 71.7519188 17.1682557 71.7519188 12.6964525 55.7037658 12.6964525 55.7037658 34.0546295 60.5055759 34.0546295 60.5055759 26.0214459 69.9706444 26.0214459 69.9706444 21.5495672 60.5055759 21.5495672"></polygon>
                <path d="M79.2893056,29.9105574 C78.3186195,29.9105574 77.5317466,29.5805639 76.881256,28.9017246 C76.2365259,28.2308787 75.9098218,27.3088426 75.9098218,26.1624623 C75.9098218,25.0001705 76.2271744,24.1042262 76.881256,23.4232 C77.5317466,22.7443607 78.3193677,22.4143672 79.2893056,22.4143672 C80.257897,22.4143672 81.0447699,22.7443607 81.6974301,23.4232 C82.3507635,24.1042262 82.6681162,25.0001705 82.6681162,26.1624623 C82.6681162,27.3255082 82.3507635,28.2214525 81.6974301,28.9017246 C81.045518,29.5805639 80.2585703,29.9105574 79.2893056,29.9105574 M84.7682395,20.4733934 C84.0610414,19.7460656 83.2289071,19.1642033 82.2962256,18.7429639 C81.3592797,18.3202918 80.3476714,18.1061279 79.2893056,18.1061279 C78.2295932,18.1061279 77.217985,18.3202918 76.280291,18.743718 C75.3476842,19.164882 74.5169714,19.7467443 73.8097733,20.4733934 C73.1032485,21.2007213 72.5339289,22.058282 72.1189466,23.0223213 C71.702468,23.9913377 71.4914233,25.0479803 71.4914233,26.1624623 C71.4914233,27.2776984 71.702468,28.334341 72.1189466,29.3026787 C72.5339289,30.2673967 73.1032485,31.1257115 73.8097733,31.8516066 C74.5162233,32.5789344 75.3476842,33.1607967 76.280291,33.5819607 C77.2165635,34.0046328 78.2281718,34.2188721 79.2893056,34.2188721 C80.3490929,34.2188721 81.3607011,34.0046328 82.2969737,33.5819607 C83.2289071,33.1615508 84.0610414,32.5796131 84.7682395,31.8522852 C85.4746895,31.1257115 86.0433357,30.2680754 86.458318,29.3026787 C86.8754699,28.3329082 87.0865895,27.2762656 87.0865895,26.1624623 C87.0865895,25.048659 86.8754699,23.9927705 86.458318,23.0223213 C86.0433357,22.0576033 85.4746895,21.1999672 84.7682395,20.4733934" id="Fill-6"></path>
                <path d="M95.9114165,29.9105574 C94.9414038,29.9105574 94.1537827,29.5805639 93.5033669,28.9017246 C92.858562,28.2308787 92.5319327,27.3080885 92.5319327,26.1624623 C92.5319327,25.0009246 92.8492853,24.1049803 93.5033669,23.4232 C94.1545308,22.7443607 94.9421519,22.4143672 95.9114165,22.4143672 C96.8806812,22.4143672 97.6676289,22.7443607 98.319541,23.4232 C98.9728744,24.1042262 99.2902271,25.0001705 99.2902271,26.1624623 C99.2902271,27.3255082 98.9728744,28.2214525 98.319541,28.9017246 C97.6683023,29.5805639 96.8814293,29.9105574 95.9114165,29.9105574 M101.390276,20.4733934 C100.683077,19.7460656 99.8516914,19.1642033 98.9190098,18.7429639 C97.9820639,18.3202918 96.9704556,18.1061279 95.9114165,18.1061279 C94.8523774,18.1061279 93.8400959,18.3202918 92.9030752,18.743718 C91.9711417,19.1642033 91.1397556,19.7467443 90.4318094,20.4733934 C89.7253594,21.2007213 89.155965,22.058282 88.7417308,23.0223213 C88.3252523,23.9905836 88.1142075,25.0472262 88.1142075,26.1624623 C88.1142075,27.2784525 88.3252523,28.3350951 88.7417308,29.3026787 C89.155965,30.2673967 89.7253594,31.1249574 90.4318094,31.8516066 C91.1397556,32.5796131 91.9711417,33.1607967 92.9030752,33.5819607 C93.8385996,34.0046328 94.850956,34.2188721 95.9114165,34.2188721 C96.9718771,34.2188721 97.9834853,34.0046328 98.9190098,33.5819607 C99.8516914,33.1615508 100.683077,32.5796131 101.390276,31.8522852 C102.0968,31.1257115 102.665447,30.2680754 103.081102,29.3026787 C103.497581,28.3329082 103.709374,27.2762656 103.709374,26.1624623 C103.709374,25.0494131 103.497581,23.9927705 103.080429,23.0223213 C102.665447,22.0576033 102.0968,21.1999672 101.390276,20.4733934" id="Fill-7"></path>
                <path d="M115.005841,23.4228984 C115.659922,24.1039246 115.978023,25.000623 115.978023,26.1629148 C115.978023,27.3092951 115.650571,28.230577 115.005841,28.902177 C114.356098,29.5802623 113.567729,29.9103311 112.597791,29.9103311 C111.628526,29.9103311 110.840157,29.5802623 110.190415,28.902177 C109.546358,28.230577 109.21898,27.3092951 109.21898,26.1629148 C109.21898,25.000623 109.537006,24.1039246 110.190415,23.4228984 C110.840905,22.7448131 111.6292,22.4140656 112.597791,22.4140656 C113.567056,22.4140656 114.35535,22.7448131 115.005841,23.4228984 L115.005841,23.4228984 Z M115.653488,19.2283016 C115.485461,19.1139803 115.307408,19.0039574 115.117834,18.8975541 C114.760308,18.7166459 114.331709,18.539282 113.844159,18.3714197 C113.335138,18.1955639 112.752128,18.1065049 112.112411,18.1065049 C111.138807,18.1065049 110.19827,18.3098852 109.313767,18.7108393 C108.432033,19.1117934 107.648003,19.679177 106.983896,20.3978328 C106.31979,21.1143016 105.784884,21.9726164 105.392869,22.9481934 C104.999432,23.9252033 104.800507,25.0064295 104.800507,26.1629148 C104.800507,27.3187213 104.999432,28.3999475 105.392121,29.3769574 C105.784136,30.352459 106.319042,31.2100951 106.983223,31.9265639 C107.762166,32.7697213 108.700608,33.4007508 109.773263,33.8038918 C110.477618,34.0694852 111.232172,34.2091443 112.015454,34.2185705 L112.112411,34.2185705 C112.792302,34.2185705 113.415561,34.1302656 113.964756,33.9565967 C114.505423,33.7865475 114.977113,33.5824131 115.364115,33.3515836 C115.455311,33.2987213 115.543589,33.2437475 115.631942,33.1880197 C115.670022,33.162682 115.709448,33.1510689 115.75037,33.1510689 C115.860269,33.1510689 115.978696,33.2401279 115.978696,33.3834066 L115.979444,34.0550066 L120.072635,34.0550066 L120.072635,12.6960754 L115.653488,12.6960754 L115.653488,19.2283016 Z" id="Fill-8"></path>
                <path d="M134.09817,22.7483574 C133.299028,22.2540459 132.415947,21.8567115 131.47541,21.5651016 C130.577217,21.2864623 129.72421,21.0121967 128.939506,20.7480361 C128.191386,20.4947344 127.563115,20.2088557 127.070552,19.8976393 C126.651306,19.6320459 126.455298,19.2789016 126.455298,18.7845902 C126.455298,18.3178033 126.682128,17.8893246 127.147384,17.4739672 C127.62057,17.053482 128.306971,16.8399967 129.187209,16.8399967 C130.061687,16.8399967 130.743748,17.072259 131.214765,17.5296951 C131.590246,17.8944525 131.809221,18.3742098 131.88321,18.9952098 L131.929145,19.3823639 L136.273629,18.3793377 L136.21333,18.0492689 C136.127895,17.5788623 135.997872,17.1251213 135.824906,16.7002623 C135.484586,15.8614787 134.988433,15.1211803 134.352306,14.4995016 C133.717601,13.8800098 132.953695,13.3915049 132.082809,13.0477115 C131.214017,12.7054262 130.239739,12.531682 129.187209,12.531682 C128.05059,12.531682 127.012423,12.7046721 126.102036,13.0455246 C125.192396,13.3871311 124.404775,13.8438131 123.761467,14.4039574 C123.110976,14.9691541 122.60188,15.642941 122.247944,16.4057115 C121.893261,17.1706689 121.713038,17.982682 121.713038,18.8178459 C121.713038,20.0894066 121.996651,21.1345115 122.555272,21.9232984 C123.100203,22.6933836 123.79012,23.3273541 124.605795,23.8092984 C125.407032,24.2818918 126.28944,24.6575082 127.230725,24.9260426 C128.138943,25.1858295 128.988284,25.4543639 129.753686,25.723577 C130.500385,25.9862295 131.127908,26.287341 131.618974,26.6180885 C132.038295,26.9010262 132.242158,27.2881803 132.242158,27.802023 C132.242158,28.355682 132.005977,28.8318951 131.519175,29.2581869 C131.025939,29.6909639 130.241161,29.9102557 129.187209,29.9102557 C128.224378,29.9102557 127.465485,29.6503934 126.930579,29.1373049 C126.393503,28.6234623 126.131512,27.9721475 126.131512,27.1463344 L126.131512,26.7960557 L121.550771,26.7960557 L121.550771,27.1463344 C121.550771,28.1719082 121.72815,29.1272 122.079243,29.9855148 C122.431758,30.8466951 122.94437,31.6051672 123.603464,32.2369508 C124.260463,32.8687344 125.069555,33.3630459 126.007249,33.7068393 C126.937013,34.046259 128.007573,34.2192492 129.187209,34.2192492 C130.345973,34.2192492 131.416533,34.0412066 132.367842,33.6894951 C133.319826,33.3384623 134.145526,32.8651902 134.821827,32.2832525 C135.501793,31.6970918 136.036699,31.0269246 136.412181,30.2909246 C136.792002,29.5454984 136.985091,28.7631213 136.985091,27.966341 C136.985091,26.6542098 136.703648,25.5679311 136.147945,24.7363869 C135.604435,23.9222623 134.914444,23.2535279 134.09817,22.7483574" id="Fill-9"></path>
                <path d="M143.877075,13.7796393 L139.943982,14.7682623 L139.943982,17.1449541 C139.943982,18.1501672 139.50102,18.598177 138.50804,18.598177 L137.410248,18.598177 L137.410248,22.4142918 L139.457928,22.4142918 L139.457928,28.4573344 C139.457928,29.3271869 139.59072,30.1196689 139.853534,30.8129869 C140.116274,31.5077377 140.488165,32.1193115 140.960603,32.6316459 C141.436632,33.1491082 142.011712,33.5471967 142.671554,33.8164098 C143.327057,34.0841902 144.05221,34.2187967 144.826215,34.2187967 C145.330972,34.2187967 145.789046,34.1594492 146.164527,34.0472393 C146.377742,33.9987508 146.573076,33.9372918 146.74462,33.8627115 L146.954318,33.771541 L146.954318,29.6919443 L146.452404,29.9481869 C146.389263,29.9806885 146.326047,30.0045934 146.263579,30.0190721 C146.195425,30.0371705 146.114254,30.0502164 146.022385,30.0603213 C145.928271,30.0697475 145.799071,30.0748 145.636055,30.0748 C145.07893,30.0748 144.655344,29.9206623 144.341583,29.6029607 C144.029242,29.2873705 143.877075,28.8589672 143.877075,28.2944492 L143.877075,22.4142918 L147.116585,22.4142918 L147.116585,18.2702951 L143.877075,18.2702951 L143.877075,13.7796393 Z" id="Fill-10"></path>
                <polygon id="Fill-11" points="164.2546 34.0551574 168.673026 34.0551574 168.673026 12.6962036 164.2546 12.6962036"></polygon>
                <path d="M175.613834,23.1755541 C176.168117,22.6631443 176.870976,22.4142164 177.761987,22.4142164 C178.651577,22.4142164 179.354511,22.6631443 179.908793,23.1755541 C180.366792,23.5974721 180.684145,24.0874852 180.873718,24.6642197 L174.65033,24.6642197 C174.840577,24.0911049 175.162942,23.591741 175.613834,23.1755541 M183.031971,20.3443672 C182.354922,19.6366459 181.55361,19.0808 180.651153,18.691459 C179.747947,18.3035508 178.775765,18.1066557 177.761987,18.1066557 C176.703023,18.1066557 175.689918,18.3208951 174.752972,18.7435672 C173.821039,19.1647311 172.989653,19.7465934 172.28238,20.4739213 C171.575182,21.2005705 171.00661,22.0581311 170.591553,23.0228492 C170.175149,23.9911869 169.964105,25.0478295 169.964105,26.1623115 C169.964105,27.2775475 170.175149,28.3341902 170.591553,29.3025279 C171.00661,30.2672459 171.575182,31.1248066 172.28238,31.8514557 C172.989653,32.5795377 173.821039,33.1606459 174.752972,33.5818098 C175.688497,34.004482 176.701526,34.2187213 177.761987,34.2187213 C178.642225,34.2187213 179.474359,34.0674492 180.235422,33.7686 C180.985712,33.4747279 181.66927,33.0882525 182.267317,32.6207869 C182.86327,32.1539246 183.377303,31.6162525 183.795203,31.0213443 C183.878469,30.9026492 183.955301,30.7825213 184.030636,30.6638262 L184.247517,30.3171672 L180.343152,28.7641016 L180.349585,28.7633475 L180.244774,28.8943344 C180.094027,29.0846689 179.903032,29.2590918 179.68114,29.408177 C179.469347,29.5442164 179.20728,29.6636656 178.902122,29.7635082 C178.604221,29.8612393 178.220061,29.910482 177.761987,29.910482 C176.881075,29.910482 176.183902,29.6868164 175.690666,29.2439344 C175.292891,28.8878492 175.007109,28.4746033 174.826213,27.9889639 L185.028629,27.9889639 L185.070299,27.6871738 C185.091845,27.5330361 185.178702,26.8824 185.200248,26.7167246 C185.223963,26.5343082 185.235409,26.3475934 185.235409,26.1623115 C185.235409,24.9862951 185.036559,23.8891574 184.643123,22.9005344 C184.250359,21.9112328 183.708271,21.0514852 183.031971,20.3443672" id="Fill-12"></path>
                <path d="M197.697897,26.8984623 C197.294435,26.3035541 196.785339,25.8121082 196.185123,25.4372459 C195.5971,25.0724885 194.951622,24.7887967 194.265296,24.5948426 C193.607624,24.4103148 192.998729,24.2351377 192.438761,24.0708951 C191.899515,23.9138164 191.446529,23.7401475 191.091845,23.5556197 C190.755789,23.3804426 190.712697,23.191541 190.712697,23.0475082 C190.712697,22.7341803 190.828282,22.4765049 191.067381,22.2594 C191.312989,22.0358098 191.67695,21.9229213 192.148639,21.9229213 C192.627586,21.9229213 193.015262,22.0560951 193.331867,22.3303607 C193.65281,22.6096787 193.850987,22.8818328 193.918468,23.138 L194.009664,23.398541 L194.339211,23.398541 L197.956372,22.0177115 L197.833606,21.6898295 C197.522762,20.8561738 197.023017,20.1222852 196.348138,19.5078459 C195.325757,18.5778918 193.857496,18.1067311 191.985699,18.1067311 C191.127006,18.1067311 190.344398,18.2413377 189.658745,18.5062525 C188.976684,18.7718459 188.374971,19.1286098 187.870962,19.5693803 C187.359772,20.015882 186.964914,20.548577 186.697087,21.1492164 C186.42926,21.7499311 186.293551,22.3889541 186.293551,23.0475082 C186.293551,23.9926951 186.506092,24.7728852 186.924665,25.3663607 C187.328874,25.9387967 187.838644,26.4135016 188.438861,26.7753934 C189.02621,27.1292918 189.671688,27.4013705 190.358762,27.5837869 C191.043741,27.7661279 191.639618,27.9318787 192.180958,28.0896361 C192.718782,28.2467148 193.171769,28.4203836 193.527874,28.6056656 C193.86393,28.7815213 193.907021,28.9689902 193.907021,29.1144557 C193.907021,29.4263508 193.759791,29.7107967 193.456803,29.9828754 C193.14162,30.2651344 192.713695,30.402682 192.148639,30.402682 C191.582163,30.402682 191.149226,30.260082 190.822596,29.9655311 C190.49088,29.6680393 190.294124,29.3163279 190.221631,28.8901115 L190.172106,28.5991803 L185.932433,28.5991803 L185.971934,28.9855803 C186.131283,30.5553115 186.753121,31.8341869 187.820015,32.7872918 C188.88474,33.736777 190.449209,34.2187967 192.471753,34.2187967 C193.349148,34.2187967 194.157567,34.0848689 194.874117,33.8200295 C195.589918,33.5558689 196.210259,33.1983508 196.715689,32.7569016 C197.224785,32.3118328 197.623982,31.7820787 197.904677,31.1813639 C198.184698,30.5792164 198.326168,29.9380066 198.326168,29.2772656 C198.326168,28.3147344 198.115048,27.5143344 197.697897,26.8984623" id="Fill-13"></path>
                <path d="M158.303228,27.0333705 L158.311083,27.2056066 C158.311083,27.2077934 158.313253,27.2599016 158.311832,27.345341 L158.309662,27.345341 L158.309662,27.4162262 C158.293129,27.7853574 158.203429,28.5604197 157.739594,29.0735082 C157.336058,29.5193311 156.633199,29.7444295 155.648823,29.7444295 C154.637962,29.7444295 153.937871,29.5352426 153.569572,29.1220721 C153.084266,28.5756525 153.148156,27.6514295 153.150998,27.6123672 L153.163193,27.4567967 L153.15242,27.4451836 L153.169702,18.7881344 L148.736864,18.7881344 L148.736864,27.2222721 C148.678735,27.9112918 148.625619,30.217023 150.225998,32.0660721 C151.468775,33.5019508 153.293141,34.2300328 155.648823,34.2300328 C156.610232,34.2300328 157.501917,34.0932393 158.309662,33.8261377 L158.309662,33.8290787 C158.291707,34.5332557 157.930589,36.1710066 154.952397,36.1710066 C153.713211,36.1710066 152.527814,35.9495279 151.524809,35.5312295 L151.193093,35.3937574 L149.663112,39.5434852 L149.972535,39.6730393 C151.5284,40.3200557 153.248628,40.6478623 155.085264,40.6478623 C157.507004,40.6478623 159.375883,39.9422525 160.801052,38.4905377 C162.697911,36.5560492 162.735242,34.1214426 162.733148,33.8522295 L162.733148,27.2721934 L162.735242,27.0427967 L162.735242,18.7917541 L158.303228,18.7917541 L158.303228,27.0333705 Z" id="Fill-14"></path>
            </g>
        </g>
    </g>
</svg>